<svg width="24" height="24" viewBox="0 0 24 24" fill="none" xmlns="http://www.w3.org/2000/svg">
<path d="M6 13.5881V18.8823C6 19.2721 6.31603 19.5881 6.70588 19.5881H17.2941C17.684 19.5881 18 19.2721 18 18.8823V13.5881" stroke="white" stroke-width="1.2" stroke-linecap="round"/>
<path d="M12.3536 4.64645C12.1583 4.45118 11.8417 4.45118 11.6464 4.64645L8.46447 7.82843C8.2692 8.02369 8.2692 8.34027 8.46447 8.53553C8.65973 8.7308 8.97631 8.7308 9.17157 8.53553L12 5.70711L14.8284 8.53553C15.0237 8.7308 15.3403 8.7308 15.5355 8.53553C15.7308 8.34027 15.7308 8.02369 15.5355 7.82843L12.3536 4.64645ZM12.5 15L12.5 5L11.5 5L11.5 15L12.5 15Z" fill="white"/>
</svg>
